<svg width="284" height="33" viewBox="0 0 284 33" fill="none" xmlns="http://www.w3.org/2000/svg">
<path d="M169.422 5.74902V19.8623L170.844 21.582H178.196L179.041 20.2197V5.74902L183.752 1H187.215L201.419 19.1621V1H206.13L210.841 5.74902V8.71777H224.188V18.2178H218.02L221.407 21.582H227.722V5.74902L232.433 1H236.534L249.903 16.4043V1H259.326V15.084L262.989 10.0605H270.58L274.244 15.084V1H283.667V26.332L278.955 31.0811H274.217L266.785 20.8916L259.354 31.0811H250.121L237.145 16.1289V26.332L232.433 31.0811H217.547L210.841 24.4219V26.332L206.13 31.0811H198.741L188.463 17.9385V22.9443L183.419 31.0811H166.431L160 23.3018V1H164.711L169.422 5.74902Z" fill="#002924"/>
<path d="M38.076 3.516C34.956 1.248 31.008 0 26.952 0H17.628C13.572 0 9.624 1.248 6.516 3.516C2.376 6.528 0 11.148 0 16.2C0 21.252 2.376 25.872 6.504 28.884C9.612 31.152 13.56 32.4 17.616 32.4H26.94C30.996 32.4 34.944 31.152 38.052 28.884C42.192 25.872 44.556 21.252 44.556 16.2C44.556 11.148 42.204 6.528 38.076 3.516ZM34.536 20.688C32.412 22.272 29.676 23.136 26.856 23.136H17.724C14.904 23.136 12.168 22.26 10.044 20.688C7.32 18.672 5.832 15.684 5.832 12.288C5.832 8.892 7.332 5.916 10.044 3.888C12.168 2.304 14.904 1.44 17.724 1.44H26.856C29.676 1.44 32.412 2.316 34.536 3.888C37.26 5.904 38.748 8.892 38.748 12.288C38.748 15.684 37.26 18.672 34.536 20.688Z" fill="#002924"/>
<path d="M26.8562 2.87994H17.7242C14.3522 2.87994 10.5962 4.87194 10.5962 8.97595C10.5962 13.0799 14.3522 15.0719 17.7242 15.0719H26.8562C30.2282 15.0719 33.9842 13.0799 33.9842 8.97595C33.9842 4.87194 30.2282 2.87994 26.8562 2.87994Z" fill="#002924"/>
<path d="M68.6519 15.3601C69.5279 14.8801 70.2479 14.1001 70.7999 13.0201C71.3519 11.9401 71.6279 10.7761 71.6279 9.52807C71.6279 6.97207 70.8599 4.99206 69.3239 3.56406C67.7999 2.14806 65.5559 1.44006 62.6039 1.44006H51.4199V30.9001H63.2879C66.0119 30.9001 68.1839 30.1081 69.8039 28.5361C71.4239 26.9641 72.2279 24.8281 72.2279 22.1281C72.2279 18.8641 71.0399 16.6081 68.6519 15.3601ZM58.4399 7.52406H61.9199C62.6879 7.52406 63.2879 7.75206 63.7319 8.23206C64.1759 8.70006 64.3919 9.36007 64.3919 10.2121C64.3919 11.0641 64.1759 11.7241 63.7319 12.1921C63.2879 12.6601 62.6879 12.9001 61.9199 12.9001H58.4399V7.52406ZM64.1639 23.9161C63.6719 24.4561 63.0119 24.7201 62.1839 24.7201H58.4399V18.8881H62.1719C63.0239 18.8881 63.6839 19.1401 64.1759 19.6561C64.6559 20.1721 64.8959 20.8801 64.8959 21.7801C64.9079 22.6681 64.6559 23.3761 64.1639 23.9161ZM85.1159 25.2361C83.8079 25.2361 82.7399 24.9241 81.9239 24.3001C81.0959 23.6761 80.6159 22.8241 80.4719 21.7441H95.6759C95.7359 20.9761 95.7599 20.1001 95.7599 19.1041C95.7599 15.6721 94.7639 12.9121 92.7599 10.8481C90.7559 8.77207 88.0319 7.74006 84.5639 7.74006C81.2759 7.74006 78.5879 8.85607 76.4999 11.1001C74.4119 13.3441 73.3679 16.1761 73.3679 19.6201C73.3679 23.2201 74.4359 26.0641 76.5839 28.1521C78.7319 30.2401 81.5519 31.2841 85.0799 31.2841C87.6599 31.2841 89.7719 30.7321 91.4039 29.6281C92.8919 28.6201 94.0079 27.4321 94.7759 26.0521L89.4959 22.9561C88.3799 24.4681 86.9279 25.2361 85.1159 25.2361ZM81.8159 14.4721C82.5119 13.7881 83.4239 13.4521 84.5639 13.4521C85.7519 13.4521 86.7119 13.7881 87.4319 14.4481C88.1519 15.1201 88.5599 15.9481 88.6439 16.9441H80.6399C80.7359 15.9721 81.1199 15.1441 81.8159 14.4721ZM115.98 15.9121V30.9001H109.128V16.7281C109.128 15.8761 108.924 15.2041 108.516 14.7001C108.108 14.2081 107.496 13.9561 106.704 13.9561C105.936 13.9561 105.336 14.1961 104.916 14.6761C104.496 15.1561 104.28 15.8281 104.28 16.6801V30.9001H97.4279V8.12406H104.28V9.57607C105.528 8.43607 107.064 7.87206 108.876 7.87206C111.372 7.87206 113.184 8.61607 114.3 10.0801C115.416 11.5561 115.98 13.5001 115.98 15.9121Z" fill="#002924"/>
<path d="M132 11L138 17M144 23L138 17M138 17L144 11M138 17L132 23" stroke="black"/>
</svg>
